<?xml version="1.0" encoding="UTF-8"?>
<svg xmlns="http://www.w3.org/2000/svg" viewBox="0 0 32 32" fill="black">
  <rect x="9" y="4" width="4" height="1"/>
  <rect x="14" y="4" width="4" height="1"/>
  <rect x="19" y="4" width="4" height="1"/>
  <rect x="9" y="5" width="4" height="1"/>
  <rect x="14" y="5" width="4" height="1"/>
  <rect x="19" y="5" width="4" height="1"/>
  <rect x="9" y="6" width="14" height="1"/>
  <rect x="9" y="7" width="14" height="1"/>
  <rect x="9" y="8" width="14" height="1"/>
  <rect x="9" y="9" width="14" height="1"/>
  <rect x="10" y="10" width="12" height="1"/>
  <rect x="10" y="11" width="12" height="1"/>
  <rect x="11" y="12" width="10" height="1"/>
  <rect x="11" y="13" width="10" height="1"/>
  <rect x="11" y="14" width="10" height="1"/>
  <rect x="11" y="15" width="10" height="1"/>
  <rect x="11" y="16" width="10" height="1"/>
  <rect x="11" y="17" width="10" height="1"/>
  <rect x="11" y="18" width="10" height="1"/>
  <rect x="11" y="19" width="10" height="1"/>
  <rect x="11" y="20" width="10" height="1"/>
  <rect x="10" y="21" width="12" height="1"/>
  <rect x="10" y="22" width="12" height="1"/>
  <rect x="9" y="23" width="14" height="1"/>
  <rect x="8" y="24" width="16" height="1"/>
  <rect x="8" y="25" width="16" height="1"/>
  <rect x="8" y="26" width="16" height="1"/>
  <rect x="8" y="27" width="16" height="1"/>
</svg>